<svg width="491" height="903" viewBox="0 0 491 903" fill="none" xmlns="http://www.w3.org/2000/svg">
<g filter="url(#filter0_d_1_2)">
<g clip-path="url(#clip0_1_2)">
<rect x="30" y="30" width="411" height="823" rx="30" fill="white"/>
<path d="M66.71 -81.9378C68.643 -85.2859 72.9241 -86.433 76.2721 -84.5L613.561 225.704C616.909 227.637 618.057 231.918 616.124 235.266L442.494 536.002C440.273 539.849 434.378 537.557 435.338 533.22V533.22C458.848 427.047 369.555 329.861 261.775 344.314L150.397 359.25V359.25C49.6933 367.15 -48.5904 325.734 -113.268 248.142L-119.146 241.089C-119.375 240.815 -119.408 240.428 -119.229 240.119L66.71 -81.9378Z" fill="#2F80ED" fill-opacity="0.5"/>
<path d="M-97.8587 -39.5566C-97.8587 -43.4225 -94.7247 -46.5566 -90.8587 -46.5566H458.141C462.007 -46.5566 465.141 -43.4226 465.141 -39.5566V260.512C465.141 264.433 459.632 265.301 458.427 261.57V261.57C429.136 170.917 319.236 136.152 243.138 193.467L162.223 254.41V254.41C88.1475 304.107 -5.13602 315.648 -89.0891 285.5L-97.3485 282.534C-97.6546 282.424 -97.8587 282.134 -97.8587 281.809V-39.5566Z" fill="#2F80ED"/>
<path d="M480.184 1034.94C479.907 1038.8 476.555 1041.7 472.699 1041.42L-74.8807 1001.96C-78.7367 1001.69 -81.6374 998.335 -81.3595 994.479L-59.7928 695.187C-59.511 691.275 -53.9538 690.806 -53.0194 694.614V694.614C-30.3196 787.137 76.7968 829.711 156.817 778.014L241.904 723.044V723.044C319.359 678.799 413.231 673.993 494.8 710.097L502.825 713.649C503.122 713.78 503.305 714.084 503.282 714.409L480.184 1034.94Z" fill="#2F80ED"/>
<path d="M143.572 25C143.164 25 142.816 24.88 142.528 24.64C142.264 24.376 142.132 24.04 142.132 23.632V0.951998C142.132 0.495999 142.264 0.135999 142.528 -0.128C142.792 -0.416001 143.152 -0.560001 143.608 -0.560001C144.064 -0.560001 144.424 -0.416001 144.688 -0.128C144.952 0.135999 145.084 0.495999 145.084 0.951998V22.48H156.712C157.144 22.48 157.48 22.588 157.72 22.804C157.96 23.02 158.08 23.332 158.08 23.74C158.08 24.148 157.96 24.46 157.72 24.676C157.48 24.892 157.144 25 156.712 25H143.572ZM168.378 25.252C166.722 25.252 165.258 24.88 163.986 24.136C162.738 23.392 161.766 22.336 161.07 20.968C160.398 19.576 160.062 17.968 160.062 16.144C160.062 14.32 160.398 12.724 161.07 11.356C161.766 9.964 162.738 8.896 163.986 8.152C165.258 7.408 166.722 7.036 168.378 7.036C170.034 7.036 171.498 7.408 172.77 8.152C174.042 8.896 175.014 9.964 175.686 11.356C176.382 12.724 176.73 14.32 176.73 16.144C176.73 17.968 176.382 19.576 175.686 20.968C175.014 22.336 174.042 23.392 172.77 24.136C171.498 24.88 170.034 25.252 168.378 25.252ZM168.378 22.84C170.106 22.84 171.426 22.276 172.338 21.148C173.274 19.996 173.742 18.328 173.742 16.144C173.742 14.008 173.274 12.364 172.338 11.212C171.402 10.036 170.082 9.448 168.378 9.448C166.674 9.448 165.354 10.036 164.418 11.212C163.482 12.364 163.014 14.008 163.014 16.144C163.014 18.304 163.47 19.96 164.382 21.112C165.318 22.264 166.65 22.84 168.378 22.84ZM189.751 7.108C190.759 7.036 191.263 7.444 191.263 8.332C191.263 8.716 191.155 9.028 190.939 9.268C190.723 9.484 190.351 9.616 189.823 9.664L188.743 9.772C187.135 9.916 185.935 10.492 185.143 11.5C184.375 12.484 183.991 13.648 183.991 14.992V23.74C183.991 24.22 183.859 24.58 183.595 24.82C183.331 25.06 182.983 25.18 182.551 25.18C182.119 25.18 181.759 25.06 181.471 24.82C181.207 24.556 181.075 24.196 181.075 23.74V8.548C181.075 8.092 181.219 7.744 181.507 7.504C181.795 7.24 182.143 7.108 182.551 7.108C182.935 7.108 183.259 7.24 183.523 7.504C183.787 7.744 183.919 8.08 183.919 8.512V10.528C184.423 9.472 185.131 8.668 186.043 8.116C186.979 7.564 188.047 7.24 189.247 7.144L189.751 7.108ZM206.987 20.932C207.251 20.932 207.479 21.04 207.671 21.256C207.863 21.472 207.959 21.748 207.959 22.084C207.959 22.684 207.539 23.236 206.699 23.74C205.835 24.244 204.923 24.628 203.963 24.892C203.003 25.132 202.067 25.252 201.155 25.252C198.443 25.252 196.295 24.448 194.711 22.84C193.151 21.232 192.371 19.012 192.371 16.18C192.371 14.38 192.719 12.796 193.415 11.428C194.111 10.036 195.083 8.956 196.331 8.188C197.603 7.42 199.043 7.036 200.651 7.036C202.931 7.036 204.743 7.78 206.087 9.268C207.431 10.756 208.103 12.772 208.103 15.316C208.103 15.796 208.007 16.144 207.815 16.36C207.623 16.576 207.311 16.684 206.879 16.684H195.287C195.503 20.812 197.459 22.876 201.155 22.876C202.091 22.876 202.895 22.756 203.567 22.516C204.239 22.252 204.959 21.904 205.727 21.472C206.351 21.112 206.771 20.932 206.987 20.932ZM200.687 9.304C199.151 9.304 197.915 9.784 196.979 10.744C196.067 11.704 195.527 13.06 195.359 14.812H205.547C205.499 13.036 205.055 11.68 204.215 10.744C203.375 9.784 202.199 9.304 200.687 9.304ZM231.911 7.036C235.799 7.036 237.743 9.352 237.743 13.984V23.74C237.743 24.196 237.611 24.556 237.347 24.82C237.083 25.06 236.735 25.18 236.303 25.18C235.871 25.18 235.511 25.06 235.223 24.82C234.959 24.556 234.827 24.196 234.827 23.74V14.056C234.827 12.448 234.539 11.284 233.963 10.564C233.387 9.844 232.487 9.484 231.263 9.484C229.799 9.484 228.647 9.976 227.807 10.96C226.967 11.944 226.547 13.276 226.547 14.956V23.74C226.547 24.196 226.403 24.556 226.115 24.82C225.851 25.06 225.503 25.18 225.071 25.18C224.639 25.18 224.291 25.06 224.027 24.82C223.763 24.556 223.631 24.196 223.631 23.74V14.056C223.631 12.448 223.343 11.284 222.767 10.564C222.191 9.844 221.279 9.484 220.031 9.484C218.591 9.484 217.439 9.976 216.575 10.96C215.735 11.944 215.315 13.276 215.315 14.956V23.74C215.315 24.196 215.183 24.556 214.919 24.82C214.655 25.06 214.307 25.18 213.875 25.18C213.443 25.18 213.083 25.06 212.795 24.82C212.531 24.556 212.399 24.196 212.399 23.74V8.548C212.399 8.116 212.531 7.768 212.795 7.504C213.083 7.24 213.443 7.108 213.875 7.108C214.283 7.108 214.619 7.24 214.883 7.504C215.147 7.744 215.279 8.08 215.279 8.512V10.24C215.807 9.208 216.539 8.416 217.475 7.864C218.411 7.312 219.491 7.036 220.715 7.036C223.451 7.036 225.239 8.188 226.079 10.492C226.583 9.436 227.351 8.596 228.383 7.972C229.415 7.348 230.591 7.036 231.911 7.036ZM145.576 58.168C144.504 58.168 143.56 57.92 142.744 57.424C141.928 56.928 141.296 56.224 140.848 55.312C140.4 54.4 140.176 53.352 140.176 52.168C140.176 50.968 140.4 49.912 140.848 49C141.312 48.072 141.952 47.352 142.768 46.84C143.6 46.328 144.552 46.072 145.624 46.072C146.232 46.072 146.824 46.152 147.4 46.312C147.976 46.472 148.488 46.712 148.936 47.032C149.224 47.24 149.424 47.432 149.536 47.608C149.664 47.768 149.728 47.944 149.728 48.136C149.728 48.312 149.68 48.456 149.584 48.568C149.488 48.68 149.368 48.736 149.224 48.736C149.064 48.736 148.808 48.6 148.456 48.328C148.04 48.024 147.624 47.784 147.208 47.608C146.792 47.432 146.288 47.344 145.696 47.344C144.448 47.344 143.472 47.776 142.768 48.64C142.064 49.488 141.712 50.664 141.712 52.168C141.712 53.656 142.056 54.816 142.744 55.648C143.448 56.464 144.424 56.872 145.672 56.872C146.28 56.872 146.784 56.784 147.184 56.608C147.6 56.432 148.048 56.192 148.528 55.888C148.672 55.792 148.808 55.704 148.936 55.624C149.08 55.544 149.192 55.504 149.272 55.504C149.432 55.504 149.56 55.56 149.656 55.672C149.752 55.784 149.8 55.92 149.8 56.08C149.8 56.272 149.744 56.44 149.632 56.584C149.52 56.728 149.304 56.912 148.984 57.136C148.552 57.456 148.024 57.712 147.4 57.904C146.792 58.08 146.184 58.168 145.576 58.168ZM156.943 58.168C155.871 58.168 154.927 57.92 154.111 57.424C153.311 56.928 152.687 56.224 152.239 55.312C151.791 54.4 151.567 53.336 151.567 52.12C151.567 50.904 151.791 49.84 152.239 48.928C152.687 48.016 153.311 47.312 154.111 46.816C154.927 46.32 155.871 46.072 156.943 46.072C157.999 46.072 158.935 46.32 159.751 46.816C160.567 47.312 161.191 48.016 161.623 48.928C162.071 49.84 162.295 50.904 162.295 52.12C162.295 53.336 162.071 54.4 161.623 55.312C161.191 56.224 160.567 56.928 159.751 57.424C158.935 57.92 157.999 58.168 156.943 58.168ZM156.919 56.872C158.151 56.872 159.103 56.464 159.775 55.648C160.447 54.832 160.783 53.656 160.783 52.12C160.783 50.616 160.439 49.448 159.751 48.616C159.079 47.768 158.143 47.344 156.943 47.344C155.727 47.344 154.783 47.768 154.111 48.616C153.439 49.448 153.103 50.616 153.103 52.12C153.103 53.656 153.431 54.832 154.087 55.648C154.743 56.464 155.687 56.872 156.919 56.872ZM170.837 46.072C173.637 46.072 175.037 47.576 175.037 50.584V57.376C175.037 57.6 174.973 57.784 174.845 57.928C174.717 58.056 174.541 58.12 174.317 58.12C174.093 58.12 173.909 58.056 173.765 57.928C173.637 57.784 173.573 57.6 173.573 57.376V50.68C173.573 49.528 173.341 48.688 172.877 48.16C172.413 47.632 171.677 47.368 170.669 47.368C169.517 47.368 168.589 47.72 167.885 48.424C167.197 49.128 166.853 50.072 166.853 51.256V57.376C166.853 57.6 166.789 57.784 166.661 57.928C166.533 58.056 166.357 58.12 166.133 58.12C165.909 58.12 165.725 58.056 165.581 57.928C165.453 57.784 165.389 57.6 165.389 57.376V46.864C165.389 46.64 165.453 46.464 165.581 46.336C165.725 46.192 165.909 46.12 166.133 46.12C166.341 46.12 166.509 46.184 166.637 46.312C166.765 46.44 166.829 46.616 166.829 46.84V48.352C167.197 47.616 167.725 47.056 168.413 46.672C169.117 46.272 169.925 46.072 170.837 46.072ZM182.61 58.168C181.938 58.168 181.274 58.08 180.618 57.904C179.978 57.712 179.41 57.456 178.914 57.136C178.61 56.928 178.394 56.752 178.266 56.608C178.154 56.448 178.098 56.272 178.098 56.08C178.098 55.92 178.146 55.784 178.242 55.672C178.354 55.56 178.482 55.504 178.626 55.504C178.77 55.504 179.018 55.624 179.37 55.864C179.834 56.168 180.306 56.416 180.786 56.608C181.282 56.8 181.898 56.896 182.634 56.896C183.578 56.896 184.314 56.728 184.842 56.392C185.37 56.04 185.634 55.544 185.634 54.904C185.634 54.52 185.538 54.208 185.346 53.968C185.154 53.712 184.834 53.496 184.386 53.32C183.938 53.128 183.298 52.944 182.466 52.768C181.042 52.448 180.026 52.04 179.418 51.544C178.826 51.032 178.53 50.352 178.53 49.504C178.53 48.48 178.93 47.656 179.73 47.032C180.53 46.392 181.57 46.072 182.85 46.072C183.474 46.072 184.066 46.152 184.626 46.312C185.202 46.472 185.698 46.704 186.114 47.008C186.674 47.392 186.954 47.768 186.954 48.136C186.954 48.296 186.898 48.44 186.786 48.568C186.69 48.68 186.57 48.736 186.426 48.736C186.266 48.736 186.018 48.608 185.682 48.352C185.25 48.048 184.818 47.808 184.386 47.632C183.97 47.44 183.434 47.344 182.778 47.344C181.946 47.344 181.282 47.536 180.786 47.92C180.29 48.288 180.042 48.792 180.042 49.432C180.042 49.8 180.122 50.104 180.282 50.344C180.458 50.584 180.746 50.8 181.146 50.992C181.562 51.168 182.154 51.344 182.922 51.52C184.026 51.776 184.874 52.048 185.466 52.336C186.058 52.624 186.482 52.968 186.738 53.368C186.994 53.768 187.122 54.28 187.122 54.904C187.122 55.88 186.706 56.672 185.874 57.28C185.058 57.872 183.97 58.168 182.61 58.168ZM199.231 55.504C199.375 55.504 199.495 55.568 199.591 55.696C199.703 55.808 199.759 55.944 199.759 56.104C199.759 56.456 199.487 56.8 198.943 57.136C197.791 57.824 196.575 58.168 195.295 58.168C193.519 58.168 192.119 57.632 191.095 56.56C190.071 55.488 189.559 54.016 189.559 52.144C189.559 50.944 189.783 49.888 190.231 48.976C190.695 48.048 191.335 47.336 192.151 46.84C192.983 46.328 193.935 46.072 195.007 46.072C196.511 46.072 197.695 46.56 198.559 47.536C199.439 48.496 199.879 49.824 199.879 51.52C199.879 51.808 199.815 52.024 199.687 52.168C199.559 52.296 199.351 52.36 199.063 52.36H191.071C191.119 53.832 191.503 54.952 192.223 55.72C192.943 56.488 193.959 56.872 195.271 56.872C195.959 56.872 196.535 56.784 196.999 56.608C197.463 56.416 197.959 56.168 198.487 55.864C198.839 55.624 199.087 55.504 199.231 55.504ZM195.007 47.272C193.887 47.272 192.991 47.624 192.319 48.328C191.647 49.032 191.247 50.016 191.119 51.28H198.535C198.503 50 198.183 49.016 197.575 48.328C196.967 47.624 196.111 47.272 195.007 47.272ZM212.104 46.12C212.328 46.12 212.504 46.192 212.632 46.336C212.776 46.464 212.848 46.64 212.848 46.864V61.696C212.848 61.92 212.776 62.096 212.632 62.224C212.504 62.368 212.328 62.44 212.104 62.44C211.88 62.44 211.704 62.368 211.576 62.224C211.448 62.096 211.384 61.92 211.384 61.696V55.768C211.032 56.552 210.512 57.152 209.824 57.568C209.136 57.968 208.32 58.168 207.376 58.168C206.352 58.168 205.448 57.92 204.664 57.424C203.88 56.928 203.272 56.232 202.84 55.336C202.408 54.424 202.192 53.368 202.192 52.168C202.192 50.952 202.408 49.888 202.84 48.976C203.272 48.048 203.88 47.336 204.664 46.84C205.448 46.328 206.352 46.072 207.376 46.072C208.32 46.072 209.136 46.28 209.824 46.696C210.512 47.096 211.032 47.688 211.384 48.472V46.864C211.384 46.64 211.448 46.464 211.576 46.336C211.704 46.192 211.88 46.12 212.104 46.12ZM207.592 56.872C208.808 56.872 209.744 56.464 210.4 55.648C211.056 54.816 211.384 53.64 211.384 52.12C211.384 50.6 211.048 49.424 210.376 48.592C209.72 47.76 208.784 47.344 207.568 47.344C206.352 47.344 205.408 47.768 204.736 48.616C204.064 49.464 203.728 50.648 203.728 52.168C203.728 53.672 204.064 54.832 204.736 55.648C205.408 56.464 206.36 56.872 207.592 56.872ZM225.381 46.12C225.605 46.12 225.781 46.192 225.909 46.336C226.053 46.464 226.125 46.64 226.125 46.864V57.376C226.125 57.6 226.053 57.784 225.909 57.928C225.781 58.056 225.605 58.12 225.381 58.12C225.173 58.12 225.005 58.056 224.877 57.928C224.749 57.784 224.685 57.6 224.685 57.376V55.912C224.317 56.648 223.789 57.208 223.101 57.592C222.429 57.976 221.661 58.168 220.797 58.168C219.421 58.168 218.381 57.792 217.677 57.04C216.989 56.272 216.645 55.144 216.645 53.656V46.864C216.645 46.64 216.709 46.464 216.837 46.336C216.981 46.192 217.165 46.12 217.389 46.12C217.613 46.12 217.789 46.192 217.917 46.336C218.045 46.464 218.109 46.64 218.109 46.864V53.56C218.109 54.696 218.333 55.536 218.781 56.08C219.245 56.608 219.965 56.872 220.941 56.872C222.061 56.872 222.957 56.52 223.629 55.816C224.317 55.096 224.661 54.144 224.661 52.96V46.864C224.661 46.64 224.725 46.464 224.853 46.336C224.981 46.192 225.157 46.12 225.381 46.12ZM234.567 46.072C235.975 46.072 237.023 46.44 237.711 47.176C238.415 47.912 238.767 49.024 238.767 50.512V57.352C238.767 57.576 238.703 57.76 238.575 57.904C238.447 58.032 238.271 58.096 238.047 58.096C237.823 58.096 237.647 58.032 237.519 57.904C237.391 57.76 237.327 57.576 237.327 57.352V55.912C236.991 56.632 236.503 57.192 235.863 57.592C235.223 57.976 234.487 58.168 233.655 58.168C232.903 58.168 232.215 58.016 231.591 57.712C230.983 57.408 230.495 56.992 230.127 56.464C229.759 55.936 229.575 55.344 229.575 54.688C229.559 53.808 229.775 53.128 230.223 52.648C230.671 52.152 231.415 51.8 232.455 51.592C233.495 51.384 234.951 51.28 236.823 51.28H237.327V50.392C237.327 49.336 237.111 48.568 236.679 48.088C236.247 47.592 235.567 47.344 234.639 47.344C233.455 47.344 232.327 47.656 231.255 48.28C231.207 48.312 231.079 48.4 230.871 48.544C230.679 48.672 230.511 48.736 230.367 48.736C230.207 48.736 230.071 48.68 229.959 48.568C229.863 48.44 229.815 48.288 229.815 48.112C229.815 47.76 230.095 47.416 230.655 47.08C231.215 46.76 231.839 46.512 232.527 46.336C233.215 46.16 233.895 46.072 234.567 46.072ZM233.775 56.896C234.815 56.896 235.663 56.544 236.319 55.84C236.991 55.136 237.327 54.24 237.327 53.152V52.36H236.871C235.335 52.36 234.159 52.424 233.343 52.552C232.527 52.68 231.951 52.904 231.615 53.224C231.279 53.528 231.111 53.976 231.111 54.568C231.111 55.24 231.367 55.8 231.879 56.248C232.391 56.68 233.023 56.896 233.775 56.896ZM247.656 56.896C248.104 56.944 248.328 57.152 248.328 57.52C248.328 57.712 248.256 57.864 248.112 57.976C247.968 58.088 247.736 58.136 247.416 58.12L246.744 58.072C245.528 57.992 244.624 57.624 244.032 56.968C243.456 56.296 243.168 55.28 243.168 53.92V47.536H241.344C241.152 47.536 241 47.488 240.888 47.392C240.776 47.28 240.72 47.136 240.72 46.96C240.72 46.784 240.776 46.64 240.888 46.528C241 46.416 241.152 46.36 241.344 46.36H243.168V43.384C243.168 43.144 243.232 42.96 243.36 42.832C243.488 42.704 243.664 42.64 243.888 42.64C244.112 42.64 244.288 42.704 244.416 42.832C244.56 42.96 244.632 43.144 244.632 43.384V46.36H247.536C247.744 46.36 247.904 46.416 248.016 46.528C248.128 46.64 248.184 46.784 248.184 46.96C248.184 47.136 248.128 47.28 248.016 47.392C247.904 47.488 247.744 47.536 247.536 47.536H244.632V53.992C244.632 54.984 244.824 55.696 245.208 56.128C245.592 56.544 246.192 56.784 247.008 56.848L247.656 56.896ZM265.658 40.96C265.882 40.96 266.058 41.032 266.186 41.176C266.33 41.304 266.402 41.48 266.402 41.704V57.352C266.402 57.576 266.33 57.76 266.186 57.904C266.058 58.032 265.882 58.096 265.658 58.096C265.434 58.096 265.258 58.032 265.13 57.904C265.002 57.76 264.938 57.576 264.938 57.352V55.768C264.586 56.552 264.066 57.152 263.378 57.568C262.69 57.968 261.874 58.168 260.93 58.168C259.906 58.168 259.002 57.92 258.218 57.424C257.434 56.912 256.826 56.2 256.394 55.288C255.962 54.36 255.746 53.288 255.746 52.072C255.746 50.872 255.962 49.824 256.394 48.928C256.826 48.016 257.434 47.312 258.218 46.816C259.002 46.32 259.906 46.072 260.93 46.072C261.874 46.072 262.69 46.28 263.378 46.696C264.066 47.096 264.586 47.688 264.938 48.472V41.704C264.938 41.48 265.002 41.304 265.13 41.176C265.258 41.032 265.434 40.96 265.658 40.96ZM261.122 56.872C262.338 56.872 263.274 56.464 263.93 55.648C264.602 54.816 264.938 53.64 264.938 52.12C264.938 50.6 264.61 49.424 263.954 48.592C263.298 47.76 262.362 47.344 261.146 47.344C259.914 47.344 258.962 47.76 258.29 48.592C257.618 49.408 257.282 50.568 257.282 52.072C257.282 53.592 257.618 54.776 258.29 55.624C258.962 56.456 259.906 56.872 261.122 56.872ZM278.936 46.12C279.16 46.12 279.336 46.192 279.464 46.336C279.608 46.464 279.68 46.64 279.68 46.864V57.376C279.68 57.6 279.608 57.784 279.464 57.928C279.336 58.056 279.16 58.12 278.936 58.12C278.728 58.12 278.56 58.056 278.432 57.928C278.304 57.784 278.24 57.6 278.24 57.376V55.912C277.872 56.648 277.344 57.208 276.656 57.592C275.984 57.976 275.216 58.168 274.352 58.168C272.976 58.168 271.936 57.792 271.232 57.04C270.544 56.272 270.2 55.144 270.2 53.656V46.864C270.2 46.64 270.264 46.464 270.392 46.336C270.536 46.192 270.72 46.12 270.944 46.12C271.168 46.12 271.344 46.192 271.472 46.336C271.6 46.464 271.664 46.64 271.664 46.864V53.56C271.664 54.696 271.888 55.536 272.336 56.08C272.8 56.608 273.52 56.872 274.496 56.872C275.616 56.872 276.512 56.52 277.184 55.816C277.872 55.096 278.216 54.144 278.216 52.96V46.864C278.216 46.64 278.28 46.464 278.408 46.336C278.536 46.192 278.712 46.12 278.936 46.12ZM284.258 58.12C284.034 58.12 283.85 58.056 283.706 57.928C283.578 57.8 283.514 57.616 283.514 57.376V46.864C283.514 46.624 283.578 46.44 283.706 46.312C283.85 46.184 284.034 46.12 284.258 46.12C284.482 46.12 284.658 46.184 284.786 46.312C284.914 46.44 284.978 46.624 284.978 46.864V57.376C284.978 57.616 284.914 57.8 284.786 57.928C284.658 58.056 284.482 58.12 284.258 58.12ZM284.258 43.408C283.938 43.408 283.674 43.312 283.466 43.12C283.274 42.928 283.178 42.68 283.178 42.376C283.178 42.056 283.274 41.8 283.466 41.608C283.674 41.416 283.938 41.32 284.258 41.32C284.578 41.32 284.834 41.416 285.026 41.608C285.234 41.8 285.338 42.056 285.338 42.376C285.338 42.68 285.234 42.928 285.026 43.12C284.834 43.312 284.578 43.408 284.258 43.408ZM292.602 58.168C291.93 58.168 291.266 58.08 290.61 57.904C289.97 57.712 289.402 57.456 288.906 57.136C288.602 56.928 288.386 56.752 288.258 56.608C288.146 56.448 288.09 56.272 288.09 56.08C288.09 55.92 288.138 55.784 288.234 55.672C288.346 55.56 288.474 55.504 288.618 55.504C288.762 55.504 289.01 55.624 289.362 55.864C289.826 56.168 290.298 56.416 290.778 56.608C291.274 56.8 291.89 56.896 292.626 56.896C293.57 56.896 294.306 56.728 294.834 56.392C295.362 56.04 295.626 55.544 295.626 54.904C295.626 54.52 295.53 54.208 295.338 53.968C295.146 53.712 294.826 53.496 294.378 53.32C293.93 53.128 293.29 52.944 292.458 52.768C291.034 52.448 290.018 52.04 289.41 51.544C288.818 51.032 288.522 50.352 288.522 49.504C288.522 48.48 288.922 47.656 289.722 47.032C290.522 46.392 291.562 46.072 292.842 46.072C293.466 46.072 294.058 46.152 294.618 46.312C295.194 46.472 295.69 46.704 296.106 47.008C296.666 47.392 296.946 47.768 296.946 48.136C296.946 48.296 296.89 48.44 296.778 48.568C296.682 48.68 296.562 48.736 296.418 48.736C296.258 48.736 296.01 48.608 295.674 48.352C295.242 48.048 294.81 47.808 294.378 47.632C293.962 47.44 293.426 47.344 292.77 47.344C291.938 47.344 291.274 47.536 290.778 47.92C290.282 48.288 290.034 48.792 290.034 49.432C290.034 49.8 290.114 50.104 290.274 50.344C290.45 50.584 290.738 50.8 291.138 50.992C291.554 51.168 292.146 51.344 292.914 51.52C294.018 51.776 294.866 52.048 295.458 52.336C296.05 52.624 296.474 52.968 296.73 53.368C296.986 53.768 297.114 54.28 297.114 54.904C297.114 55.88 296.698 56.672 295.866 57.28C295.05 57.872 293.962 58.168 292.602 58.168ZM149.848 88.504C149.992 88.504 150.112 88.568 150.208 88.696C150.32 88.808 150.376 88.944 150.376 89.104C150.376 89.456 150.104 89.8 149.56 90.136C148.408 90.824 147.192 91.168 145.912 91.168C144.136 91.168 142.736 90.632 141.712 89.56C140.688 88.488 140.176 87.016 140.176 85.144C140.176 83.944 140.4 82.888 140.848 81.976C141.312 81.048 141.952 80.336 142.768 79.84C143.6 79.328 144.552 79.072 145.624 79.072C147.128 79.072 148.312 79.56 149.176 80.536C150.056 81.496 150.496 82.824 150.496 84.52C150.496 84.808 150.432 85.024 150.304 85.168C150.176 85.296 149.968 85.36 149.68 85.36H141.688C141.736 86.832 142.12 87.952 142.84 88.72C143.56 89.488 144.576 89.872 145.888 89.872C146.576 89.872 147.152 89.784 147.616 89.608C148.08 89.416 148.576 89.168 149.104 88.864C149.456 88.624 149.704 88.504 149.848 88.504ZM145.624 80.272C144.504 80.272 143.608 80.624 142.936 81.328C142.264 82.032 141.864 83.016 141.736 84.28H149.152C149.12 83 148.8 82.016 148.192 81.328C147.584 80.624 146.728 80.272 145.624 80.272ZM159.001 79.072C161.801 79.072 163.201 80.576 163.201 83.584V90.376C163.201 90.6 163.137 90.784 163.009 90.928C162.881 91.056 162.705 91.12 162.481 91.12C162.257 91.12 162.073 91.056 161.929 90.928C161.801 90.784 161.737 90.6 161.737 90.376V83.68C161.737 82.528 161.505 81.688 161.041 81.16C160.577 80.632 159.841 80.368 158.833 80.368C157.681 80.368 156.753 80.72 156.049 81.424C155.361 82.128 155.017 83.072 155.017 84.256V90.376C155.017 90.6 154.953 90.784 154.825 90.928C154.697 91.056 154.521 91.12 154.297 91.12C154.073 91.12 153.889 91.056 153.745 90.928C153.617 90.784 153.553 90.6 153.553 90.376V79.864C153.553 79.64 153.617 79.464 153.745 79.336C153.889 79.192 154.073 79.12 154.297 79.12C154.505 79.12 154.673 79.184 154.801 79.312C154.929 79.44 154.993 79.616 154.993 79.84V81.352C155.361 80.616 155.889 80.056 156.577 79.672C157.281 79.272 158.089 79.072 159.001 79.072ZM167.75 91.12C167.526 91.12 167.342 91.056 167.198 90.928C167.07 90.8 167.006 90.616 167.006 90.376V79.864C167.006 79.624 167.07 79.44 167.198 79.312C167.342 79.184 167.526 79.12 167.75 79.12C167.974 79.12 168.15 79.184 168.278 79.312C168.406 79.44 168.47 79.624 168.47 79.864V90.376C168.47 90.616 168.406 90.8 168.278 90.928C168.15 91.056 167.974 91.12 167.75 91.12ZM167.75 76.408C167.43 76.408 167.166 76.312 166.958 76.12C166.766 75.928 166.67 75.68 166.67 75.376C166.67 75.056 166.766 74.8 166.958 74.608C167.166 74.416 167.43 74.32 167.75 74.32C168.07 74.32 168.326 74.416 168.518 74.608C168.726 74.8 168.83 75.056 168.83 75.376C168.83 75.68 168.726 75.928 168.518 76.12C168.326 76.312 168.07 76.408 167.75 76.408ZM184.902 79.072C187.478 79.072 188.766 80.576 188.766 83.584V90.376C188.766 90.6 188.702 90.784 188.574 90.928C188.446 91.056 188.27 91.12 188.046 91.12C187.822 91.12 187.638 91.056 187.494 90.928C187.366 90.784 187.302 90.6 187.302 90.376V83.68C187.302 82.512 187.094 81.672 186.678 81.16C186.262 80.632 185.598 80.368 184.686 80.368C183.646 80.368 182.814 80.72 182.19 81.424C181.582 82.128 181.278 83.072 181.278 84.256V90.376C181.278 90.6 181.214 90.784 181.086 90.928C180.958 91.056 180.782 91.12 180.558 91.12C180.334 91.12 180.15 91.056 180.006 90.928C179.878 90.784 179.814 90.6 179.814 90.376V83.68C179.814 82.512 179.606 81.672 179.19 81.16C178.774 80.632 178.11 80.368 177.198 80.368C176.158 80.368 175.326 80.72 174.702 81.424C174.094 82.128 173.79 83.072 173.79 84.256V90.376C173.79 90.6 173.726 90.784 173.598 90.928C173.47 91.056 173.294 91.12 173.07 91.12C172.846 91.12 172.662 91.056 172.518 90.928C172.39 90.784 172.326 90.6 172.326 90.376V79.864C172.326 79.624 172.39 79.44 172.518 79.312C172.662 79.184 172.846 79.12 173.07 79.12C173.294 79.12 173.462 79.184 173.574 79.312C173.702 79.44 173.766 79.616 173.766 79.84V81.28C174.102 80.56 174.582 80.016 175.206 79.648C175.846 79.264 176.582 79.072 177.414 79.072C179.254 79.072 180.446 79.84 180.99 81.376C181.326 80.656 181.838 80.096 182.526 79.696C183.214 79.28 184.006 79.072 184.902 79.072ZM207.144 79.552C207.272 79.264 207.48 79.12 207.768 79.12C207.944 79.12 208.104 79.184 208.248 79.312C208.392 79.44 208.464 79.592 208.464 79.768C208.464 79.88 208.44 79.984 208.392 80.08L203.64 90.52C203.56 90.696 203.44 90.832 203.28 90.928C203.136 91.024 202.976 91.072 202.8 91.072C202.608 91.072 202.432 91.024 202.272 90.928C202.128 90.832 202.016 90.696 201.936 90.52L197.16 80.08C197.112 79.984 197.088 79.888 197.088 79.792C197.088 79.6 197.168 79.44 197.328 79.312C197.504 79.168 197.688 79.096 197.88 79.096C198.184 79.096 198.392 79.24 198.504 79.528L202.824 89.224L207.144 79.552ZM219.621 88.504C219.765 88.504 219.885 88.568 219.981 88.696C220.093 88.808 220.149 88.944 220.149 89.104C220.149 89.456 219.877 89.8 219.333 90.136C218.181 90.824 216.965 91.168 215.685 91.168C213.909 91.168 212.509 90.632 211.485 89.56C210.461 88.488 209.949 87.016 209.949 85.144C209.949 83.944 210.173 82.888 210.621 81.976C211.085 81.048 211.725 80.336 212.541 79.84C213.373 79.328 214.325 79.072 215.397 79.072C216.901 79.072 218.085 79.56 218.949 80.536C219.829 81.496 220.269 82.824 220.269 84.52C220.269 84.808 220.205 85.024 220.077 85.168C219.949 85.296 219.741 85.36 219.453 85.36H211.461C211.509 86.832 211.893 87.952 212.613 88.72C213.333 89.488 214.349 89.872 215.661 89.872C216.349 89.872 216.925 89.784 217.389 89.608C217.853 89.416 218.349 89.168 218.877 88.864C219.229 88.624 219.477 88.504 219.621 88.504ZM215.397 80.272C214.277 80.272 213.381 80.624 212.709 81.328C212.037 82.032 211.637 83.016 211.509 84.28H218.925C218.893 83 218.573 82.016 217.965 81.328C217.357 80.624 216.501 80.272 215.397 80.272ZM224.07 91.12C223.846 91.12 223.662 91.056 223.518 90.928C223.39 90.8 223.326 90.616 223.326 90.376V74.704C223.326 74.464 223.39 74.28 223.518 74.152C223.662 74.024 223.846 73.96 224.07 73.96C224.278 73.96 224.446 74.024 224.574 74.152C224.718 74.28 224.79 74.464 224.79 74.704V90.376C224.79 90.616 224.718 90.8 224.574 90.928C224.446 91.056 224.278 91.12 224.07 91.12ZM229.391 91.12C229.167 91.12 228.983 91.056 228.839 90.928C228.711 90.8 228.647 90.616 228.647 90.376V79.864C228.647 79.624 228.711 79.44 228.839 79.312C228.983 79.184 229.167 79.12 229.391 79.12C229.615 79.12 229.791 79.184 229.919 79.312C230.047 79.44 230.111 79.624 230.111 79.864V90.376C230.111 90.616 230.047 90.8 229.919 90.928C229.791 91.056 229.615 91.12 229.391 91.12ZM229.391 76.408C229.071 76.408 228.807 76.312 228.599 76.12C228.407 75.928 228.311 75.68 228.311 75.376C228.311 75.056 228.407 74.8 228.599 74.608C228.807 74.416 229.071 74.32 229.391 74.32C229.711 74.32 229.967 74.416 230.159 74.608C230.367 74.8 230.471 75.056 230.471 75.376C230.471 75.68 230.367 75.928 230.159 76.12C229.967 76.312 229.711 76.408 229.391 76.408ZM239.078 89.896C239.526 89.944 239.75 90.152 239.75 90.52C239.75 90.712 239.678 90.864 239.534 90.976C239.39 91.088 239.158 91.136 238.838 91.12L238.166 91.072C236.95 90.992 236.046 90.624 235.454 89.968C234.878 89.296 234.59 88.28 234.59 86.92V80.536H232.766C232.574 80.536 232.422 80.488 232.31 80.392C232.198 80.28 232.142 80.136 232.142 79.96C232.142 79.784 232.198 79.64 232.31 79.528C232.422 79.416 232.574 79.36 232.766 79.36H234.59V76.384C234.59 76.144 234.654 75.96 234.782 75.832C234.91 75.704 235.086 75.64 235.31 75.64C235.534 75.64 235.71 75.704 235.838 75.832C235.982 75.96 236.054 76.144 236.054 76.384V79.36H238.958C239.166 79.36 239.326 79.416 239.438 79.528C239.55 79.64 239.606 79.784 239.606 79.96C239.606 80.136 239.55 80.28 239.438 80.392C239.326 80.488 239.166 80.536 238.958 80.536H236.054V86.992C236.054 87.984 236.246 88.696 236.63 89.128C237.014 89.544 237.614 89.784 238.43 89.848L239.078 89.896Z" fill="#2F80ED" fill-opacity="0.7"/>
</g>
</g>
<defs>
<filter id="filter0_d_1_2" x="0" y="0" width="491" height="903" filterUnits="userSpaceOnUse" color-interpolation-filters="sRGB">
<feFlood flood-opacity="0" result="BackgroundImageFix"/>
<feColorMatrix in="SourceAlpha" type="matrix" values="0 0 0 0 0 0 0 0 0 0 0 0 0 0 0 0 0 0 127 0" result="hardAlpha"/>
<feOffset dx="10" dy="10"/>
<feGaussianBlur stdDeviation="20"/>
<feColorMatrix type="matrix" values="0 0 0 0 0 0 0 0 0 0 0 0 0 0 0 0 0 0 0.3 0"/>
<feBlend mode="normal" in2="BackgroundImageFix" result="effect1_dropShadow_1_2"/>
<feBlend mode="normal" in="SourceGraphic" in2="effect1_dropShadow_1_2" result="shape"/>
</filter>
<clipPath id="clip0_1_2">
<rect x="30" y="30" width="411" height="823" rx="30" fill="white"/>
</clipPath>
</defs>
</svg>
